<svg xmlns="http://www.w3.org/2000/svg" xmlns:xlink="http://www.w3.org/1999/xlink" width="46" height="53" viewBox="0 0 46 53"><defs><path id="9z9ea" d="M953.284 4734.954c11.203 6.085 15.041 19.562 8.573 30.102-2.272 3.703-8.175 7.4-15.055 10.27-10.089 3.269-27.92 9.466-27.92 9.466v-28.922s.553-9.832 2.406-12.85c6.468-10.54 20.793-14.151 31.996-8.066zm-22.881 17.242c0 5.996 5.166 10.857 11.54 10.857 6.372 0 11.539-4.861 11.539-10.857 0-5.996-5.167-10.856-11.54-10.856-6.373 0-11.54 4.86-11.54 10.856z"/></defs><g><g transform="translate(-919 -4732)"><use fill="#3aa0ef" xlink:href="#9z9ea"/><use fill="#9f9acf" xlink:href="#9z9ea"/></g></g></svg>